# xmcd
#
# Track frame offsets:
#	150
#	19169
#	34303
#	55958
#	71288
#	83436
#	103364
#	114573
#	134107
#	152066
#	164372
#	182368
#	201175
#	225380
#	238425
#
# Disc length: 3657 seconds
#
# Revision: 0
# Processed by: cddbd v1.5.1PL0 Copyright (c) Steve Scherf et al.
# Submitted via: audiograbber 1.83.01
#
DISCID=cc0e470f
DTITLE=Alias Blues Gang - Movin' The Gang
DYEAR=2004
DGENRE=Blues
TTITLE0=Movin' The Gang
TTITLE1=T-Bone Shuffle
TTITLE2=Ni siquiera Soy Negro
TTITLE3=Somebody Loan Me A Dime
TTITLE4=Evil Gal Blues
TTITLE5=Amor En Paro
TTITLE6=A Pelo
TTITLE7=Baby Why You Wanna Let Go
TTITLE8=Homework
TTITLE9=Humdrum Blues
TTITLE10=The Riff
TTITLE11=Quédate En Cama
TTITLE12=I'll Play The Blues For You
TTITLE13=Big Chief
TTITLE14=You Can't Judge A Book By Its Cover
EXTD=
EXTT0=
EXTT1=
EXTT2=
EXTT3=
EXTT4=
EXTT5=
EXTT6=
EXTT7=
EXTT8=
EXTT9=
EXTT10=
EXTT11=
EXTT12=
EXTT13=
EXTT14=
PLAYORDER=
